<?xml version="1.0" encoding="UTF-8" standalone="no"?>
<!-- Created with Inkscape (http://www.inkscape.org/) -->

<svg
   version="1.1"
   id="svg2"
   width="1190.4"
   height="1190.4"
   viewBox="0 0 1190.4 1190.4"
   sodipodi:docname="Logomark filled dark.png"
   inkscape:version="1.1.2 (0a00cf5339, 2022-02-04)"
   xmlns:inkscape="http://www.inkscape.org/namespaces/inkscape"
   xmlns:sodipodi="http://sodipodi.sourceforge.net/DTD/sodipodi-0.dtd"
   xmlns="http://www.w3.org/2000/svg"
   xmlns:svg="http://www.w3.org/2000/svg">
  <defs
     id="defs6" />
  <sodipodi:namedview
     id="namedview4"
     pagecolor="#505050"
     bordercolor="#eeeeee"
     borderopacity="1"
     inkscape:pageshadow="0"
     inkscape:pageopacity="0"
     inkscape:pagecheckerboard="0"
     showgrid="false"
     inkscape:zoom="0.62920026"
     inkscape:cx="595.99467"
     inkscape:cy="595.20001"
     inkscape:window-width="1854"
     inkscape:window-height="995"
     inkscape:window-x="0"
     inkscape:window-y="0"
     inkscape:window-maximized="1"
     inkscape:current-layer="g8" />
  <g
     inkscape:groupmode="layer"
     inkscape:label="Image"
     id="g8">
    <path
       style="fill:#000000;stroke-width:0.32"
       d="m 571.40923,1132.2691 c -4.55977,-0.9907 -8.89017,-4.4428 -11.03305,-8.7955 l -1.18157,-2.4 -0.48557,-7.68 c -1.31686,-20.8278 -1.77289,-35.0062 -1.99673,-62.08 -0.24292,-29.3847 0.21449,-54.30859 1.97331,-107.51999 1.51011,-45.68748 1.96064,-65.31788 2.40144,-104.63999 0.17165,-15.312 0.52416,-37.704 0.78336,-49.76 0.73494,-34.18477 1.13885,-57.04403 1.45878,-82.56 0.16458,-13.1273 0.4472,-24.65117 0.63962,-26.08 0.90675,-6.73366 2.85664,-11.87962 5.50627,-14.53165 6.37488,-6.38064 20.13171,-10.73901 39.93008,-12.65046 12.23005,-1.18074 16.62922,-1.30058 42.56,-1.15923 25.29686,0.13785 33.35194,0.14534 79.84,0.0741 65.78682,-0.10074 107.57302,2.51008 148.16,9.25709 28.24477,4.69529 56.11213,12.11949 79.24637,21.11219 3.23049,1.25578 8.82563,3.40362 12.43363,4.77302 8.39232,3.18532 12.30726,4.8648 19.04,8.16804 48.96453,24.0232 87.41453,69.2856 112.53773,132.47686 9.0271,22.70528 15.9097,46.28387 21.3532,73.15178 4.1975,20.71856 7.292,57.23365 9.7871,115.48824 1.8654,43.5522 2.9562,65.349 3.7152,74.24 0.566,6.6297 0.7171,15.6222 0.3134,18.6557 -1.0956,8.2329 -4.0837,14.0527 -8.3467,16.2563 -1.9401,1.0028 -4.9837,1.0263 -7.1203,0.055 -4.3529,-1.979 -8.21,-7.8054 -10.3174,-15.585 -1.8125,-6.6911 -1.9595,-9.4191 -2.7163,-50.4219 -0.8583,-46.4948 -2.4442,-75.65739 -5.6299,-103.51999 -4.3687,-38.2103 -12.0353,-71.54265 -23.4053,-101.76003 -3.3413,-8.88006 -5.6217,-14.12176 -10.0234,-23.04 -22.8591,-46.31408 -50.3141,-79.55318 -83.98733,-101.68154 -19.64035,-12.90659 -41.30688,-21.88537 -66.19082,-27.42992 -3.01904,-0.67267 -7.02387,-1.67171 -8.89958,-2.22006 -8.99478,-2.6295 -32.68813,-7.5985 -50.3496,-10.55936 -37.17642,-6.23245 -62.53994,-7.38755 -71.36,-3.24995 -3.25491,1.52694 -4.53258,3.26457 -4.19757,5.70877 0.3681,2.6856 1.63581,4.36188 7.05066,9.32316 37.0167,33.91588 59.38701,87.23988 69.28265,165.1489 2.34317,18.44797 4.13424,42.65811 5.13712,69.44003 0.92253,24.6356 1.2057,64.14199 0.92551,129.11999 -0.13991,32.4385 -0.18215,33.5636 -1.56192,41.6 -1.77847,10.3584 -5.56723,17.6318 -10.48186,20.1222 -1.90224,0.9639 -3.0303,1.0331 -5.66339,0.3473 -4.10243,-1.0686 -7.75629,-4.0404 -9.82342,-7.9899 -1.1586,-2.2135 -1.17812,-2.3142 -1.67431,-8.6396 -1.37744,-17.5591 -1.50237,-30.3659 -1.15344,-118.23999 0.13523,-34.0559 0.0987,-37.7782 -0.42153,-43.04 -0.31325,-3.168 -0.99751,-10.224 -1.52055,-15.68 -5.41843,-56.51955 -12.86179,-99.89155 -23.44966,-136.64003 -4.6601,-16.17427 -7.68071,-24.49421 -11.90823,-32.8 -22.22835,-43.67203 -71.60352,-72.09404 -134.06006,-77.16953 -6.13376,-0.49843 -24.24854,-0.49453 -30.08,0.006 -6.90822,0.59357 -14.85181,1.61766 -16.8,2.16585 -3.17181,0.89252 -6.69936,2.97604 -9.40112,5.55271 -6.96416,6.64173 -10.28582,15.94409 -11.06099,30.9767 -0.16979,3.29322 -0.38928,21.46768 -0.48771,40.38768 -0.21738,41.78272 -0.64464,74.15338 -2.097,158.88 -0.34393,20.06402 -0.91312,53.61602 -1.26483,74.56002 -0.35171,20.94399 -0.81971,42.97599 -1.04,48.95999 -0.46848,12.7258 -0.47811,26.6583 -0.0266,38.56 0.63658,16.7824 -0.50115,26.1405 -4.06553,33.44 -3.12512,6.3998 -7.95076,10.7004 -13.10327,11.6775 -2.15184,0.4081 -3.20224,0.3782 -5.68883,-0.162 z m -89.20406,-2.5913 c -4.99398,-1.2028 -11.72422,-5.614 -17.12,-11.2207 -3.4975,-3.6343 -17.00096,-18.8164 -44.49267,-50.0235 -26.62989,-30.2289 -35.90144,-40.6273 -50.21667,-56.32 -54.03159,-59.23089 -96.97346,-98.18948 -140.01066,-127.02331 -17.41036,-11.66448 -34.55287,-21.36902 -53.6,-30.34349 -14.3218,-6.74803 -18.84131,-8.07318 -27.53377,-8.07318 -6.42036,0 -11.16891,1.176 -16.95832,4.19978 -4.15707,2.1712 -6.86844,4.23584 -11.05424,8.41744 -9.66864,9.65897 -17.71232,24.48988 -24.396813,44.98278 -4.277775,13.11456 -5.706588,19.12202 -12.71015,53.43999 -5.221772,25.5871 -8.911142,51.28689 -14.860947,103.51999 -4.015293,35.2501 -4.182675,36.4593 -6.090781,44 -2.976022,11.7611 -6.562912,17.0503 -10.648252,15.702 -3.664455,-1.2094 -7.394407,-9.3208 -9.161188,-19.9227 -1.199699,-7.1989 -1.365788,-11.8182 -1.188684,-33.0593 0.167475,-20.0863 0.421481,-28.121 1.340422,-42.4 4.948797,-76.89729 23.742893,-142.93419 56.05481,-196.95998 20.681563,-34.57974 47.461233,-64.69709 79.287913,-89.17002 39.30154,-30.22064 87.38595,-52.70179 145.28,-67.92345 20.70688,-5.44432 47.10627,-10.66003 69.6879,-13.76813 35.32666,-4.86234 71.9298,-6.916 83.66247,-4.69402 10.45555,1.98013 17.25302,5.79277 21.19129,11.88605 2.48365,3.84269 4.60749,10.76371 5.6432,18.38957 0.52564,3.87034 0.56004,8.4048 0.49408,65.12 -0.039,33.528 -0.20291,87.528 -0.36422,120 -0.5617,113.06289 -0.99715,186.25658 -1.26883,213.27998 -0.25408,25.2693 -0.31962,27.4511 -0.92323,30.7378 -1.7336,9.4393 -5.8401,15.5331 -11.625,17.2511 -2.03427,0.6041 -5.85363,0.5929 -8.41766,-0.025 z m -10.00093,-63.086 c 1.06147,-1.0097 1.9328,-3.2491 2.52051,-6.4782 0.588,-3.2307 0.60676,-68.32439 0.0275,-96.15999 -0.227,-10.912 -0.54966,-28.408 -0.71705,-38.87999 -0.3081,-19.27549 -0.51504,-24.3441 -2.21459,-54.24 -2.36509,-41.60314 -2.68608,-55.92006 -1.93709,-86.4 0.17299,-7.04 0.53552,-21.8 0.8056,-32.8 0.27008,-11 0.56205,-20.32272 0.64883,-20.71715 0.29526,-1.34189 0.16797,-13.03872 -0.16806,-15.44573 -1.95956,-14.03536 -9.48896,-21.73606 -24.44384,-25.00003 -6.11399,-1.3344 -9.1648,-1.61923 -19.12439,-1.7856 -36.00301,-0.60135 -74.11856,6.56857 -116.43667,21.90288 -22.02065,7.97936 -46.9698,18.99673 -69.866,30.85235 -32.88004,17.02522 -48.76646,27.40042 -64.44134,42.08573 -7.84966,7.35424 -10.9725,12.65027 -10.9725,18.60861 0,6.9679 4.71382,13.80588 13.6,19.72841 2.7672,1.84432 7.94864,4.72835 27.04,15.05069 45.39347,24.54339 63.96902,36.63635 90.72,59.0601 4.6345,3.8848 5.36696,4.51721 24.9935,21.57974 41.11309,35.74209 46.0089,40.72059 106.04772,107.83998 31.65958,35.3933 34.32441,38.2505 37.82,40.5506 3.10195,2.0411 4.47907,2.1874 6.09785,0.6476 z M 98.676117,594.23298 c -3.14993,-1.00816 -5.802435,-2.64285 -8.15095,-5.0232 -4.763866,-4.82845 -7.552454,-11.8047 -9.008323,-22.53616 -0.491831,-3.62538 -0.582071,-6.40387 -0.561219,-17.28 0.112457,-58.65968 0.68783,-99.21376 2.692281,-189.76 0.704087,-31.8055 2.053232,-93.44298 2.553059,-116.64 0.943213,-43.77464 1.514394,-77.89246 1.928608,-115.2 0.177821,-16.016 0.469002,-31.208 0.647066,-33.76 1.829949,-26.22654 11.336261,-35.61584 38.548531,-38.07408 3.89797,-0.35212 29.56156,-1.63842 48.16,-2.41385 23.95579,-0.99879 74.50885,-1.38573 103.2,-0.7899 20.66907,0.42923 32.04144,0.94632 49.28,2.2407 19.46806,1.46178 51.96691,2.5142 98.72,3.19686 76.30992,1.11424 90.44701,1.42403 117.28,2.57 15.14918,0.64698 18.044,1.07445 22.50272,3.3229 4.7769,2.4089 7.8383,5.4985 8.69408,8.77415 0.90221,3.45345 -1.35571,6.82202 -6.32208,9.43177 -2.77392,1.45765 -5.87571,2.31014 -11.27472,3.09871 -10.27162,1.50026 -21.02342,1.49603 -41.6,-0.0164 -17.65811,-1.2979 -71.46272,-2.07703 -110.51472,-1.60033 -40.14074,0.48998 -36.78506,0.41343 -169.96528,3.87712 -7.392,0.19225 -24.024,0.47599 -36.96,0.63055 -12.936,0.15455 -24.888,0.43552 -26.56,0.62438 -19.85062,2.24222 -30.01338,9.0292 -35.8618,23.94952 -3.60624,9.20014 -5.19739,19.58424 -5.74579,37.49788 -0.16973,5.544 -0.37815,10.584 -0.46317,11.2 -0.085,0.616 -0.31341,5.224 -0.50753,10.24 -0.70274,18.15827 0.93375,29.30209 5.47605,37.28963 1.64398,2.89091 5.69982,7.34375 8.28817,9.09942 4.82294,3.27142 11.06366,5.51508 17.77407,6.39013 4.5182,0.58919 24.03599,1.93943 37.12,2.56797 21.48294,1.03201 28.00484,1.13236 72.32,1.11276 41.59988,-0.0184 56.89216,-0.20232 91.84,-1.10455 64.80678,-1.67308 84.45094,-1.93292 120.32,-1.59149 16.016,0.15245 30.848,0.42836 32.96,0.61313 20.6544,1.80702 31.17715,5.35568 34.9448,11.78473 0.89933,1.53457 1.28816,4.4494 0.92054,6.9008 -0.56595,3.77411 -6.54857,8.00599 -14.08697,9.96464 -6.30327,1.63772 -8.35901,1.76901 -32.65837,2.08572 -12.496,0.16287 -34.6,0.45038 -49.12,0.6389 -48.5457,0.6303 -119.36909,1.91428 -221.92,4.02326 -13.2,0.27146 -33.792,0.62275 -45.76,0.78064 -23.22252,0.30637 -25.80596,0.47337 -32.19465,2.08114 -3.96841,0.99869 -7.48403,2.40371 -10.68535,4.27042 -3.29033,1.91861 -8.99414,7.50722 -11.32143,11.09275 -5.77654,8.89964 -9.28387,20.67788 -11.1489,37.44 -0.5265,4.73204 -0.56795,9.5817 -0.54698,64 0.0208,54.05978 0.20262,78.36544 1.11345,148.87636 0.34381,26.61472 0.21965,31.39644 -1.00656,38.76566 -2.37114,14.24995 -8.37852,23.19558 -17.10288,25.468 -2.40336,0.62598 -4.02405,0.59725 -6.235753,-0.11066 z M 1074.5251,591.6661 c -7.8167,-1.95555 -15.758,-7.77219 -24.5023,-17.94682 -1.1317,-1.31686 -5.0866,-5.78086 -8.7885,-9.92 -8.066,-9.01859 -19.7492,-22.2254 -45.43953,-51.36566 -57.77235,-65.53014 -87.65034,-97.26605 -121.43222,-128.98333 -39.51885,-37.10358 -77.5752,-65.96137 -115.42394,-87.5249 -12.71469,-7.24392 -35.7615,-18.6837 -43.45344,-21.56904 -26.6112,-9.98218 -48.4128,0.5347 -65.51632,31.60443 -8.46582,15.3787 -16.14678,38.41258 -21.52608,64.55284 -0.81488,3.96 -2.32957,11.16 -3.36592,16 -7.0303,32.83274 -11.74842,64.46154 -18.54496,124.32 -4.60064,40.51878 -4.86733,42.55162 -6.61245,50.4 -2.62419,11.80211 -6.35542,19.41558 -10.05904,20.52522 -5.82681,1.74576 -11.38854,-9.30682 -13.79053,-27.40522 -0.3248,-2.4473 -0.4222,-9.48509 -0.41408,-29.92 0.0106,-26.29539 0.19632,-33.58339 1.28512,-50.4 7.87511,-121.632 45.58682,-218.02319 112.81968,-288.36727 37.07997,-38.79586 84.18628,-69.83901 139.225,-91.74957 32.36643,-12.88485 66.55161,-22.8454 103.93958,-30.28486 12.85277,-2.55745 30.3999,-5.47936 37.29798,-6.21077 2.64989,-0.28097 11.14589,-1.36573 18.88,-2.41057 7.73412,-1.04484 16.58205,-2.19158 19.66205,-2.54831 41.033,-4.7525 65.5341,-2.80404 78.2624,6.22388 7.0356,4.9902 10.9485,14.28708 12.6549,30.06747 0.6204,5.73736 0.3311,118.89496 -0.8378,327.68 -0.7039,125.73094 -0.9558,150.28595 -1.5808,154.08 -2.0569,12.48541 -6.5718,19.31437 -14.0988,21.32499 -2.1731,0.58051 -5.93,0.50547 -8.64,-0.17251 z m -11.8404,-71.12934 c 0.4872,-0.38327 1.2183,-1.44848 1.6246,-2.36714 1.5344,-3.4696 1.705,-5.62035 2.1,-26.47363 0.3713,-19.60429 0.1354,-50.40643 -0.6954,-90.78237 -0.172,-8.36 -0.4526,-25.28 -0.6236,-37.6 -0.3217,-23.18285 -0.5336,-28.60931 -2.3993,-61.44 -2.3031,-40.52605 -2.7232,-51.55534 -2.7247,-71.53021 0,-15.9585 0.5795,-44.3159 1.5203,-74.22979 0.7153,-22.74675 0.7085,-32.10956 -0.027,-36.05718 -0.9925,-5.33108 -3.0596,-10.54585 -5.495,-13.86215 -1.3223,-1.80075 -4.6591,-5.00376 -6.56,-6.29712 -9.6493,-6.56526 -25.8208,-9.16682 -50.55993,-8.1338 -24.85104,1.03769 -47.23692,4.31916 -72.29862,10.598 -42.86698,10.7397 -91.93318,30.74621 -141.43638,57.66999 -24.20455,13.16438 -40.15236,23.94244 -54.17511,36.6134 -8.46249,7.64673 -12.16217,12.22273 -14.00941,17.32782 -2.11148,5.83533 -1.50985,11.02225 1.96602,16.95025 1.3999,2.38751 8.08074,9.06944 11.17904,11.18085 2.87971,1.96248 10.99782,6.49524 30.53443,17.04895 58.74211,31.73261 79.02864,45.45479 119.17597,80.6128 4.33872,3.79949 12.20304,10.65005 17.47629,15.22339 41.20355,35.73488 48.89321,43.58691 114.7029,117.1248 39.873,44.55552 40.8804,45.62218 45.4859,48.16093 2.128,1.17302 3.9637,1.26493 5.2385,0.26221 z"
       id="path12" />
  </g>
</svg>
