<?xml version="1.0" encoding="UTF-8" standalone="no"?>
<!-- Created with Inkscape (http://www.inkscape.org/) -->

<svg
   version="1.1"
   id="svg2"
   width="300.16"
   height="55.360001"
   viewBox="0 0 300.16 55.360001"
   sodipodi:docname="Logo_LaboXIX&amp;XX.jpg"
   inkscape:version="1.1.2 (0a00cf5339, 2022-02-04)"
   xmlns:inkscape="http://www.inkscape.org/namespaces/inkscape"
   xmlns:sodipodi="http://sodipodi.sourceforge.net/DTD/sodipodi-0.dtd"
   xmlns="http://www.w3.org/2000/svg"
   xmlns:svg="http://www.w3.org/2000/svg">
  <defs
     id="defs6" />
  <sodipodi:namedview
     id="namedview4"
     pagecolor="#505050"
     bordercolor="#eeeeee"
     borderopacity="1"
     inkscape:pageshadow="0"
     inkscape:pageopacity="0"
     inkscape:pagecheckerboard="0"
     showgrid="false"
     inkscape:zoom="3.898793"
     inkscape:cx="128.11657"
     inkscape:cy="45.013931"
     inkscape:window-width="1850"
     inkscape:window-height="1009"
     inkscape:window-x="0"
     inkscape:window-y="0"
     inkscape:window-maximized="1"
     inkscape:current-layer="g8" />
  <g
     inkscape:groupmode="layer"
     inkscape:label="Image"
     id="g8">
    <path
       style="fill:#000000;stroke-width:0.32"
       d="m 0.11540374,42.306463 0.08355,-13.2 h 27.52000026 27.52 l 0.08355,13.2 0.08355,13.200004 H 27.718954 0.03185474 Z M 57.958954,27.826462 V 0.14646196 h 121.119996 121.12 V 27.826462 55.506467 H 179.07895 57.958954 Z M 158.92737,38.895707 c 5.12278,-2.266048 7.48307,-9.248652 5.3642,-15.869245 -1.50397,-4.699309 -4.82589,-7.00554 -10.05103,-6.977896 -4.22111,0.02233 -7.20088,1.834129 -8.9885,5.465306 -0.94632,1.922259 -1.05885,2.457746 -1.16439,5.541179 -0.17921,5.236016 1.2181,8.806762 4.2713,10.914992 2.70876,1.870394 7.48665,2.288877 10.56842,0.925664 z m -7.59549,-3.311184 c -2.60654,-1.578025 -3.61162,-4.089604 -3.38975,-8.4706 0.15599,-3.080014 0.7799,-4.707287 2.38751,-6.227103 1.80021,-1.701881 4.62899,-2.04297 7.08457,-0.854242 4.92414,2.383734 5.06709,12.795725 0.21342,15.54479 -1.76322,0.998669 -4.65256,1.001952 -6.29575,0.0072 z m 83.94339,3.917185 c 0.94803,-0.178615 2.42917,-0.762029 3.29145,-1.296477 l 1.56776,-0.971719 1.00747,0.976474 c 0.93606,0.907261 1.17288,0.976477 3.341,0.976477 h 2.33353 l -2.07662,-2.320263 -2.07663,-2.320262 0.6573,-1.279738 c 0.84106,-1.637528 1.50976,-4.14514 1.51462,-5.679738 l 0.004,-1.2 h -1.71556 -1.71555 l -0.16872,1.840001 c -0.0928,1.012 -0.36479,2.312902 -0.60444,2.890895 l -0.43573,1.050897 -2.49083,-2.508872 -2.49083,-2.508871 1.42182,-1.021079 c 2.53255,-1.818735 3.3556,-4.639781 2.13686,-7.324197 -1.41717,-3.1215 -7.20896,-3.850837 -9.82284,-1.236953 -2.14902,2.149014 -2.10113,5.325353 0.12052,7.995007 l 0.77962,0.936828 -0.90716,0.461191 c -3.14075,1.596727 -4.77839,5.503458 -3.6068,8.604322 1.20616,3.192364 5.29216,4.811008 9.93596,3.936077 z m -4.7359,-3.499319 c -1.29565,-0.790016 -1.70042,-1.557808 -1.70042,-3.225491 0,-1.512235 0.74594,-2.754633 2.143,-3.569268 l 0.92408,-0.538833 2.99708,3.208664 c 2.36633,2.533386 2.90224,3.274262 2.54646,3.520365 -1.97018,1.362809 -5.20282,1.645629 -6.9102,0.604563 z m 1.35641,-12.022311 c -1.88996,-2.477862 -1.11189,-4.953616 1.5568,-4.953616 1.72385,0 2.42637,0.709897 2.42637,2.451864 0,1.048965 -0.21288,1.494355 -1.17333,2.454803 -0.64534,0.645333 -1.34824,1.173333 -1.56202,1.173333 -0.21378,0 -0.7753,-0.506873 -1.24782,-1.126384 z M 98.278952,37.586463 v -1.6 h -5.6 -5.6 v -9.760001 -9.76 h -1.92 -1.92 v 11.36 11.360001 h 7.52 7.52 z m 6.889618,-1.44 1.03605,-2.88 4.8111,-0.0882 4.81111,-0.08819 0.63042,1.688192 c 0.34672,0.928509 0.81324,2.300196 1.03671,3.048196 l 0.4063,1.36 h 1.86934 c 1.02814,0 1.86935,-0.126403 1.86935,-0.280896 0,-0.154493 -1.6722,-4.870493 -3.71601,-10.480001 -2.0438,-5.609507 -3.85983,-10.600668 -4.03562,-11.09147 -0.31779,-0.887319 -0.33411,-0.891844 -2.88598,-0.8 l -2.56638,0.09237 -3.31616,9.12 c -1.82389,5.016001 -3.67648,10.098858 -4.11687,11.295242 l -0.8007,2.175239 1.96565,-0.09524 1.96565,-0.09524 z m 2.39038,-6.629403 c 0,-0.585734 3.31923,-10.491785 3.51252,-10.482886 0.14272,0.0066 3.17062,9.093471 3.47094,10.416495 0.0847,0.373179 -0.53879,0.455794 -3.44,0.455794 -2.57,0 -3.54346,-0.106977 -3.54346,-0.389403 z m 29.47298,9.183179 c 2.68795,-0.915879 4.12702,-2.948237 4.12702,-5.82849 0,-2.136567 -0.8637,-3.594431 -2.68511,-4.532299 l -1.4896,-0.767012 1.04735,-0.622955 c 1.36899,-0.814255 2.0881,-1.732654 2.49237,-3.183093 0.72889,-2.615038 -0.41256,-5.055449 -3.00526,-6.425252 -1.18087,-0.623885 -1.91748,-0.709866 -6.99975,-0.817051 l -5.68,-0.11979 V 27.79538 39.186463 h 5.383 c 3.97607,0 5.75595,-0.127082 6.80998,-0.486224 z m -8.35298,-5.913776 v -3.52 h 3.05589 c 4.43987,0 5.58411,0.738326 5.58411,3.60318 0,2.47361 -1.73331,3.414093 -6.32,3.429184 l -2.32,0.0076 z m 0,-10.094475 v -3.43273 l 2.96175,0.154918 c 3.05317,0.159701 4.78578,0.732803 5.15947,1.706623 0.10933,0.284904 0.19878,1.129129 0.19878,1.876055 0,1.045598 -0.1898,1.536533 -0.82497,2.133828 -0.74442,0.70003 -1.15061,0.786436 -4.16,0.884908 l -3.33503,0.109128 z m 52.96,12.176561 c 1.408,-2.365328 2.632,-4.303973 2.72,-4.308099 0.088,-0.0041 1.31785,1.89904 2.733,4.229257 l 2.57299,4.236756 2.14701,0.09462 c 1.18085,0.05204 2.147,0.02758 2.147,-0.05437 0,-0.08195 -1.64225,-2.698749 -3.64945,-5.81511 l -3.64945,-5.666115 2.58149,-4.039511 c 1.41982,-2.221735 2.99583,-4.687515 3.50225,-5.479515 l 0.92077,-1.44 -1.81698,-0.09729 c -0.99933,-0.05351 -1.98848,-0.03147 -2.19811,0.04897 -0.20963,0.08044 -1.44161,1.960221 -2.73773,4.177288 -1.29613,2.217066 -2.43674,4.027955 -2.53469,4.024197 -0.098,-0.0038 -1.24648,-1.817633 -2.55228,-4.030832 -1.30579,-2.2132 -2.54592,-4.089905 -2.75583,-4.170455 -0.20991,-0.08055 -1.19641,-0.102676 -2.19222,-0.04917 l -1.81057,0.09729 3.53604,5.493157 3.53604,5.493156 -3.34311,5.118308 c -4.68458,7.1721 -4.47523,6.457041 -1.88743,6.446724 l 2.17126,-0.0087 2.56,-4.300599 z m 19.36,-7.042087 v -11.36 h -1.92 -1.92 v 11.36 11.360001 h 1.92 1.92 z m 9.76,7.614106 c 3.39734,-5.66682 2.77822,-5.596305 5.7831,-0.658669 l 2.5831,4.244564 2.1369,0.09462 c 1.1753,0.05204 2.1369,0.02758 2.1369,-0.05437 0,-0.08195 -1.64083,-2.696538 -3.64628,-5.810195 l -3.64628,-5.661199 3.15332,-4.921259 c 4.42945,-6.912849 4.22864,-6.207598 1.76757,-6.207598 h -2.07419 l -2.49508,4.16 c -1.3723,2.288 -2.56798,4.158263 -2.65708,4.156139 -0.0891,-0.0021 -1.24198,-1.872386 -2.56198,-4.156139 l -2.4,-4.152277 -2.1968,-0.0039 -2.19681,-0.0039 0.46287,0.72 c 0.25458,0.396 1.86152,2.903268 3.57098,5.571705 l 3.10811,4.851705 -2.98537,4.588296 c -1.64196,2.523562 -3.31608,5.128295 -3.72028,5.788295 l -0.7349,1.2 2.1861,-0.0048 2.1861,-0.0048 2.24,-3.736362 z m 44.87639,-0.01411 c 1.2573,-2.068 2.48146,-4.024219 2.72037,-4.347154 0.395,-0.533948 0.6744,-0.193236 3.08328,3.760002 l 2.64893,4.347152 h 2.05551 c 1.13054,0 2.05552,-0.08243 2.05552,-0.183187 0,-0.100752 -1.50378,-2.515546 -3.34172,-5.366205 -1.83795,-2.850661 -3.43296,-5.420752 -3.54446,-5.711315 -0.13409,-0.349429 0.94317,-2.327831 3.18173,-5.843327 1.86145,-2.923262 3.38445,-5.382736 3.38445,-5.465494 0,-0.08276 -0.91944,-0.150468 -2.0432,-0.150468 h -2.04321 l -2.47191,4.157181 c -1.35956,2.286449 -2.5713,4.09576 -2.69276,4.02069 -0.12147,-0.07507 -1.28672,-1.945802 -2.58944,-4.157181 l -2.3686,-4.02069 h -2.18527 -2.18528 l 1.18391,1.84 c 0.65115,1.012 2.25281,3.523048 3.55926,5.580107 l 2.37534,3.740107 -3.16678,4.899892 c -1.74173,2.694944 -3.42753,5.295895 -3.74622,5.779895 l -0.57945,0.88 h 2.212 2.212 z m 21.67055,-0.418823 c 1.3943,-2.298352 2.63069,-4.237908 2.74754,-4.310125 0.11685,-0.07222 1.39324,1.808253 2.83643,4.178823 l 2.62398,4.310125 h 2.06256 c 1.1344,0 2.06255,-0.08243 2.06255,-0.183187 0,-0.100752 -1.50378,-2.515546 -3.34172,-5.366205 -1.83795,-2.850661 -3.43296,-5.420752 -3.54446,-5.711315 -0.13409,-0.349429 0.94317,-2.327831 3.18173,-5.843327 1.86145,-2.923262 3.38445,-5.382736 3.38445,-5.465494 0,-0.08276 -0.91944,-0.150468 -2.0432,-0.150468 h -2.04321 l -2.47191,4.157181 c -1.35956,2.286449 -2.58759,4.08569 -2.72897,3.998313 -0.14138,-0.08738 -1.30765,-1.958109 -2.59171,-4.157181 l -2.33465,-3.998313 h -2.17719 -2.17719 l 0.85746,1.36 c 0.4716,0.748 1.961,3.088 3.30977,5.2 1.34877,2.112 2.55643,4.018711 2.68367,4.237136 0.1954,0.335415 -1.57126,3.260759 -6.76558,11.202865 l -0.4709,0.72 h 2.20273 2.20273 z M 0.03895374,13.426462 V 0.14646196 h 27.68000026 27.68 v 13.28000004 13.28 h -27.68 -27.68000026 z"
       id="path12" />
  </g>
</svg>
