<?xml version="1.0" encoding="utf-8"?>
<!-- Generator: Adobe Illustrator 27.1.1, SVG Export Plug-In . SVG Version: 6.00 Build 0)  -->
<svg version="1.1" id="Ebene_1" xmlns="http://www.w3.org/2000/svg" xmlns:xlink="http://www.w3.org/1999/xlink" x="0px" y="0px"
	 viewBox="0 0 1000 1000" style="enable-background:new 0 0 1000 1000;" xml:space="preserve">
<style type="text/css">
	.st0{fill:#193060;}
	.st1{fill:none;}
	.st2{fill:#666666;}
</style>
<g id="TEXT">
</g>
<g>
	<g id="LOGO">
		<g>
			<g>
				<g>
					<path class="st0" d="M124.9,617.9c3.7,3.1,8.9,4.7,15.5,4.7c-0.4-0.5-1-1.1-1.6-1.8c-0.6-0.7-1.2-1.7-1.8-3
						c-0.6-1.3-1.1-3-1.7-5.1c-0.5-2.1-0.7-4.8-0.7-8.3c0-3.8,0.4-7.2,1.1-10.2c0.7-3,2-5.6,4-7.6c1.8-2,4.4-3.6,7.6-4.7
						c3.2-1.1,7-1.7,11.8-1.7h1.6v113.5h22.6V583.2c4.5,1,8.9,1.8,13,2.5c4.2,0.7,8,1.1,11.3,1.1c6,0,10.3-1.2,12.8-3.7
						c2.5-2.5,3.9-6.1,3.9-10.7c0-1.6-0.2-3.4-0.4-5.5c-2,0.9-4.5,1.6-7.5,2.3c-3,0.7-6.7,1.1-11.1,1.1c-3.3,0-6.3-0.2-9.3-0.5
						c-2.9-0.4-5.9-0.8-8.9-1.2s-6.2-0.9-9.6-1.2s-7.2-0.5-11.3-0.5c-8.6,0-15.8,0.9-21.7,2.6s-10.7,4.2-14.4,7.4
						c-3.7,3.2-6.4,6.9-8.1,11.2c-1.7,4.1-2.5,8.8-2.5,13.7C119.3,609.3,121.2,614.7,124.9,617.9L124.9,617.9z"/>
					<path class="st0" d="M204.9,614.9v78.6h22.6v-59.8c1.7-1.8,3.3-3.3,4.8-4.5c1.5-1.2,3.1-1.8,4.7-1.8c1.5,0,2.5,0.5,3.1,1.6
						c0.5,1.1,1.1,2.2,1.7,3.3c0.5,1.2,1.2,2.3,2.2,3.3c1,1.1,2.6,1.6,5,1.6c3.3,0,5.6-1,7-2.9c1.4-1.9,2.1-4,2.1-6.3
						c0-1.7-0.4-3.3-1.1-4.9c-0.7-1.7-1.7-3.1-2.8-4.5c-1.2-1.3-2.6-2.5-4.2-3.3c-1.7-0.9-3.4-1.2-5.4-1.2c-3.3,0-6.4,1.1-9.3,3.3
						c-2.8,2.2-5.4,4.6-7.7,7.3v-9.8L204.9,614.9L204.9,614.9z"/>
					<path class="st0" d="M306.1,614.9v7.6c-0.6-1.8-1.5-3.4-2.6-4.5c-1.1-1.1-2.4-1.9-3.8-2.5c-1.4-0.5-2.8-1-4.2-1.1
						c-1.4-0.1-2.8-0.3-4-0.3c-5.4,0-10.1,1.4-13.9,4.1c-3.8,2.7-6.9,6.3-9.3,10.6s-4,9.1-5.2,14.2c-1.1,5.1-1.7,10.1-1.7,14.9
						c0,6.9,0.8,12.6,2.5,17.2c1.7,4.7,3.8,8.4,6.4,11.2c2.6,2.8,5.6,4.8,8.9,6.2c3.3,1.2,6.5,1.9,9.9,1.9c2.8,0,5.4-0.4,7.5-1.2
						c2.1-0.9,4-1.9,5.6-3.3c1.6-1.4,3-2.9,4.1-4.7c1.1-1.8,2.1-3.5,3-5.3c1.1,4.5,3.2,8.1,6.1,10.6c2.9,2.5,7.1,3.9,12.7,3.9
						c2.1,0,4.5-0.4,7.2-1c2.7-0.6,5.4-1.9,8-4c1.2-1,2.4-2.1,3.4-3.4v7.4h22.7V643c0.1-1.8,0.4-3.5,0.8-5.3c0.4-1.8,1-3.3,1.8-4.7
						c0.7-1.3,1.7-2.5,2.7-3.3s2.5-1.2,4-1.2c2.6,0,4.7,1.3,6.1,4c1.4,2.6,2.1,7.1,2.1,13.4c0,1.1,0,2.5-0.1,4.1
						c-0.1,1.8-0.1,3.5-0.1,5.4s0,3.7-0.1,5.4c-0.1,1.8-0.1,3.1-0.1,4c0,8.9,1.8,16,5.4,21.4c3.6,5.4,9.5,8,17.7,8
						c2.3,0,4.7-0.4,7-1.1c2.4-0.7,4.7-2,6.8-4.1c1.3-1.3,2.6-3,3.8-5.1c0.7,0.9,1.4,1.7,2.2,2.5c2.3,2.3,5.2,4.1,8.6,5.5
						c3.4,1.5,7.5,2.2,12.1,2.2c3.8,0,7.7-0.7,11.8-2c4-1.3,7.5-3.7,10.2-6.9c3.2-2.2,6.6-4.8,10.2-8c1.3-1.1,2.5-2.3,3.8-3.6v19.7
						h22.7v-35.1c0.9-2.6,2.1-4.8,3.9-6.7c1.8-1.8,4.2-2.7,7.5-2.7c3.3,0,5.5,1.1,6.5,3.3c1,2.2,1.5,5.1,1.5,8.8
						c0,1.9-0.1,4-0.2,6.3s-0.2,4.1-0.2,5.4c0,2.9,0.4,5.7,1.3,8.3c0.9,2.6,2.3,4.9,4,6.9c1.8,2,4.1,3.5,7,4.7
						c2.9,1.2,6.2,1.8,10.2,1.8c2.5,0,5-0.4,7.6-1.1c2.5-0.7,4.8-2,6.9-4.1c1-1,1.8-2,2.6-3.3v7.6H590v-59.8
						c1.7-1.8,3.3-3.3,4.8-4.5c1.5-1.2,3.1-1.8,4.7-1.8c1.5,0,2.5,0.5,3.1,1.6c0.6,1.1,1.1,2.2,1.7,3.3c0.5,1.2,1.2,2.3,2.2,3.3
						c1,1.1,2.6,1.6,5,1.6c3.3,0,5.5-1,7-2.9c1.4-1.9,2.1-4,2.1-6.3c0-1.7-0.4-3.3-1.1-4.9c-0.7-1.7-1.6-3.1-2.8-4.5
						c-1.2-1.3-2.6-2.5-4.2-3.3c-1.6-0.9-3.4-1.2-5.4-1.2c-3.3,0-6.4,1.1-9.2,3.3c-2.8,2.2-5.4,4.6-7.7,7.3V615h-22.7v50.4
						c-0.5,2.4-1.1,4.5-1.5,6.2c-0.4,1.8-1.1,3.2-1.8,4.2s-1.8,1.9-2.9,2.5c-1.1,0.6-2.6,0.9-4.6,0.9c-3.1,0-5.1-0.7-6.2-2
						s-1.6-3.2-1.6-5.4c0-0.7,0-1.8,0.1-3c0.1-1.2,0.1-2.6,0.3-4c0.2-1.4,0.2-2.8,0.3-4.2c0.1-1.4,0.1-2.6,0.1-3.5
						c0-3.9-0.6-7.1-1.8-9.8c-1.2-2.6-2.9-4.7-4.9-6.3c-2-1.7-4.4-2.8-7.1-3.4s-5.5-1.1-8.5-1.1H525c-0.7,0-1.4,0.1-2.1,0.2
						l26.7-21.7h-15.6l-25.4,23.8v-55.4l-22.7,3.2v78.7c-2.6,2.6-5.8,5.3-9.6,7.8v-1c0-3.9-0.2-7.4-0.6-10.5
						c-0.4-3.2-1.1-6.9-2.2-11.1c-1.1-4.2-2.5-9.6-4.2-15.9c-1.8-6.3-4-14.6-6.6-24.8l-22.7,3.2c-0.9,7.7-2.3,15.5-4.3,23.2
						c-2,7.7-4.6,15.5-7.6,23.4c-1.7,0.9-3.1,2.3-4.1,4.2s-1.7,4.4-1.7,7.2c0,1.3,0.2,2.6,0.4,4c0,0,0,0.1-0.1,0.1
						c-1.4,2.6-3.9,4-7.5,4c-3.3,0-5.4-1.1-6.2-3.3s-1.4-5.6-1.4-10.1c0-1.3,0-3.1,0.1-5c0.1-2,0.1-4,0.3-6.2
						c0.1-2.1,0.2-4.1,0.3-6.2c0.1-2.1,0.1-3.8,0.1-5.1c0-5.4-0.6-10-1.8-13.7c-1.1-3.7-2.7-6.7-4.8-9c-2.1-2.3-4.4-3.9-7.1-4.8
						s-5.5-1.4-8.4-1.4c-2.7,0-5.6,0.5-8.6,1.7c-3.1,1.1-5.7,3.5-8.2,7.1l-0.1-8.2h-22.7v56.7c-0.5,1.3-1.2,2.5-2.1,3.7
						c-2,2.6-4.6,4-7.6,4s-5.2-0.7-6.3-2.1c-1.2-1.4-1.8-4.3-1.8-8.7v-53.4L306.1,614.9L306.1,614.9z M306.1,665.4
						c0,2.3-0.4,4.3-1,6.1c-0.6,1.8-1.4,3.2-2.5,4.3c-1.1,1.1-2.1,2-3.3,2.6c-1.2,0.6-2.4,0.9-3.5,0.9c-1,0-2.1-0.2-3.4-0.4
						c-1.4-0.3-2.6-1.1-3.9-2.5c-1.2-1.4-2.2-3.7-3.1-6.8c-0.9-3.1-1.2-7.4-1.2-13c0-3.4,0.3-7.1,0.8-10.9c0.5-3.9,1.3-7.3,2.5-10.5
						c1.1-3.3,2.5-5.9,4.4-8c1.8-2.1,4-3.3,6.5-3.3c1.2,0,2.4,0.3,3.3,0.7s1.8,1.1,2.4,1.8c0.6,0.7,1.1,1.3,1.4,2
						c0.4,0.7,0.5,1.2,0.6,1.7V665.4L306.1,665.4z M431.5,672.3c0.3,0.2,0.6,0.4,1,0.4c0.9,0.3,1.8,0.4,2.6,0.4c1.8,0,3.2-0.6,4-1.9
						c1-1.3,1.4-2.7,1.4-4.3c0-1.7-0.4-3.1-1.3-4.1c-0.9-1.1-1.9-1.9-3.1-2.5c1.7-5,3.3-9.8,4.8-14.5c1.5-4.7,2.8-9.5,3.9-14.5
						c1.6,5.9,2.9,10.7,4,14.6c1.1,3.9,2,7.2,2.6,10.1c0.7,2.8,1.1,5.4,1.5,7.6c0.4,2.3,0.4,4.8,0.4,7.6c0,4.1-1.1,6.9-3.3,8.6
						c-2.2,1.6-4.8,2.5-7.8,2.5c-3.4,0-6.2-0.9-7.9-2.7c-1.3-1.3-2.4-3.2-3.2-5.4C431.4,673.4,431.4,672.8,431.5,672.3L431.5,672.3z
						"/>
					<path class="st0" d="M637.3,581.4c-3.4,0-6.4,1.2-8.8,3.7c-2.4,2.5-3.6,5.4-3.6,8.9c0,3.4,1.2,6.4,3.6,8.8s5.4,3.6,8.8,3.6
						s6.4-1.2,8.9-3.6s3.7-5.4,3.7-8.8c0-3.4-1.2-6.4-3.7-8.9C643.7,582.7,640.7,581.4,637.3,581.4z"/>
					<path class="st0" d="M626.6,614.9v55.2c0,7.3,1.6,13.2,4.8,17.7s8.9,6.7,17,6.7c2.1,0,4.5-0.4,7.2-1c2.7-0.6,5.4-1.9,8-4
						c2.5-1.9,4.7-4.7,6.8-8.3c1.1,2.5,2.5,4.7,4.3,6.6c4.2,4.4,10.8,6.6,19.7,6.6c7,0,12.7-1.3,17.2-4.1c4.5-2.7,8-6.2,10.5-10.5
						c2.5-4.2,4.3-8.9,5.3-14c1-5.1,1.4-9.9,1.4-14.5c0-6-0.6-11.3-1.9-15.9c-1.2-4.7-3-8.6-5.3-11.7c-2.3-3.2-4.9-5.5-8-7.1
						c-3.1-1.7-6.5-2.5-10.3-2.5c-1.8,0-3.5,0.3-5.4,0.9c-1.8,0.6-4.1,1.8-6.9,3.9l-0.2-35.3l-22.5,3.2l-0.2,80.2
						c-0.4,3.3-1.6,6.2-3.3,8.5c-2,2.6-4.6,4-7.6,4c-3.1,0-5.2-0.7-6.3-2.1s-1.8-4.3-1.8-8.7v-53.4h-22.4V614.9z M691.1,628.4
						c0.9-1,2.1-1.7,3.8-2.1s3.2-0.7,4.4-0.7c4.1,0,7.4,2.4,9.8,7.2c2.5,4.8,3.6,11.5,3.6,20c0,3.1-0.2,6.2-0.6,9.2
						s-1.1,5.9-2.1,8.5c-1,2.6-2.4,4.7-4.2,6.3c-1.8,1.6-4,2.5-6.9,2.5c-2.3,0-4.2-0.7-5.7-2.1c-1.5-1.4-2.2-3.8-2.2-7.1
						L691.1,628.4L691.1,628.4z"/>
					<path class="st0" d="M738.4,614.9v55.2c0,7.5,1.7,13.4,4.9,17.8c3.3,4.4,8.7,6.6,16.1,6.6c1.6,0,3.3-0.2,5.2-0.4
						c1.9-0.4,3.8-1,5.6-2s3.7-2.5,5.5-4.5c1.8-1.9,3.3-4.6,4.6-7.9c1.1,4.7,3,8.3,5.9,11c2.9,2.6,7.1,4,12.8,4c2.2,0,4.7-0.4,7.4-1
						s5.4-1.9,8-4c1.7-1.3,3.3-3,4.7-4.9c0.6,0.7,1.2,1.5,1.9,2.1c2.3,2.3,5.2,4.1,8.6,5.5c3.4,1.5,7.5,2.2,12.1,2.2
						c2.8,0,5.8-0.4,9-1.1c3.2-0.8,6-2,8.6-3.8c2.5-1.8,4.7-4,6.3-6.9c1.7-2.8,2.5-6.3,2.5-10.4c0-3.9-0.2-7.4-0.6-10.5
						s-1.1-6.9-2.2-11.1s-2.5-9.6-4.2-15.9c-1.8-6.3-4-14.6-6.6-24.8l-22.7,3.2c-0.9,7.7-2.3,15.5-4.3,23.2
						c-2,7.7-4.6,15.5-7.6,23.4c-1.7,0.9-3.1,2.3-4.1,4.2c-1.1,1.9-1.7,4.4-1.7,7.2c0,1.7,0.3,3.4,0.8,5.2c-1.8,1.8-4.4,2.8-7.7,2.8
						c-2.7,0-4.6-0.8-5.6-2.5c-1.1-1.6-1.6-4.4-1.6-8.4v-53.4h-22.7v50.4c0,4-1,7.3-2.8,9.9c-1.9,2.6-4.2,4-7,4
						c-2.1,0-3.7-0.8-4.8-2.5c-1.1-1.6-1.7-4.4-1.7-8.4v-53.4L738.4,614.9L738.4,614.9z M824.5,672.7c0.8,0.2,1.6,0.4,2.4,0.4
						c1.8,0,3.2-0.6,4.1-1.9c1-1.3,1.4-2.7,1.4-4.3c0-1.7-0.4-3.1-1.3-4.1c-0.9-1.1-1.9-1.9-3.1-2.5c1.7-5,3.3-9.8,4.8-14.5
						c1.5-4.7,2.8-9.5,3.9-14.5c1.6,5.9,2.9,10.7,4,14.6c1.1,3.9,2,7.2,2.6,10.1c0.7,2.8,1.1,5.4,1.5,7.6c0.4,2.3,0.4,4.8,0.4,7.6
						c0,4.1-1.1,6.9-3.3,8.6c-2.2,1.6-4.8,2.5-7.8,2.5c-3.4,0-6.2-0.9-7.9-2.7c-1-1-1.8-2.2-2.5-3.7
						C824,674.8,824.2,673.8,824.5,672.7L824.5,672.7z"/>
				</g>
				<g>
					<path class="st0" d="M868.3,606.6c-6.9,0-12.4-5.5-12.4-12.4s5.5-12.4,12.4-12.4c6.9,0,12.4,5.5,12.4,12.4
						S875.1,606.6,868.3,606.6z M868.3,584.3c-5.4,0-9.8,4.4-9.8,9.8c0,5.4,4.4,9.8,9.8,9.8c5.4,0,9.8-4.4,9.8-9.8
						C878.1,588.7,873.7,584.3,868.3,584.3z"/>
					<path class="st0" d="M867.6,593.2c0.7,0,1.2-0.2,1.5-0.4s0.4-0.7,0.4-1.3s-0.2-1-0.4-1.3c-0.3-0.3-0.8-0.4-1.5-0.4h-1.4v3.3
						L867.6,593.2L867.6,593.2z M866.1,595.5v4.9h-3.3v-13h5.1c1.8,0,3,0.3,3.8,0.9c0.8,0.5,1.2,1.5,1.2,2.7c0,0.9-0.2,1.6-0.6,2.1
						s-1.1,1-1.8,1.2c0.4,0.1,0.9,0.4,1.2,0.7c0.4,0.4,0.7,0.9,1.1,1.7l1.8,3.7h-3.5l-1.6-3.3c-0.4-0.6-0.6-1.1-1-1.3
						s-0.8-0.4-1.3-0.4H866.1L866.1,595.5z"/>
				</g>
			</g>
			<g>
				<path class="st0" d="M662.9,395.2L662.9,395.2c-1.9,4.3-4.2,8.6-6.6,12.8c-0.8,1.5-0.5,3.3,0.8,4.4c4.7,4,9.4,9,13,14.4
					c0.8,1.1,2.2,1.8,3.6,1.5c2.2-0.4,4.4-0.9,6.6-1.3c2.1-0.5,4.1,1.1,4.3,3.2l0.9,12.6c0.2,2.2,2.2,3.7,4.4,3.2
					c18.5-4.3,26.7-26.9,14.9-44C698.6,393.1,677.4,394.6,662.9,395.2z"/>
				<path class="st0" d="M704.6,362.2c2.3,4.3,1.7,12.2-0.1,14.9c-1.2,1.9-3,3.2-4.3,1.1c-0.8-1.3-0.1-4.7-0.6-6.2
					c-0.4-1.2-1.1-2.3-1.8-3.3c-0.7,0.5-1.3,1.1-2,1.5c-0.3,4.7-4.1,10.9-6.8,12.5c-1.9,1.1-4.1,1.4-4.3-1.1c-0.1-1.4,2-4.1,2.3-5.8
					c0.1-0.6,0.1-1.2,0.1-1.8c-5.1,1.1-11.2,0.4-18.6-2.8c-0.4-0.2-0.8,0-1,0.4c-4.7,14.9-10.6,28.9-18.5,41.3
					c-0.2,0.3-0.1,0.7,0.2,0.9c11.5,8.8,22.1,21.3,22.3,32.7c0.1,4.7-1.2,9.6-3.3,13.8c-9.4,18.8-29.4,19-41.6,11.2
					c-0.4-0.2-0.4-0.6-0.2-1l11.7-18.6c0.3-0.4,0.1-0.9-0.4-1c-5.4-2.3-10.7-4.9-16-7.6c-0.3-0.1-0.5-0.1-0.7,0.1
					c-51.1,36.6-123,9.5-150.9,23.3c-22.6,19.5-54.3,31.7-87.8,26.4c-0.2,0-0.4,0-0.4,0.1l-37,22.3c-0.2,0.1-0.3,0.2-0.3,0.4
					c-6.9,22.9-23.2,27.9-43.8,24.4c-0.4-0.1-0.7-0.5-0.5-1l17.1-43.6c0.1-0.2,0.2-0.3,0.3-0.4l60.5-37.6c0.1,0,0.1-0.1,0.2-0.1
					c13-3.7,24.1-13.4,32.1-25.1c2.6-4.3,0.4-8.8-2.1-12c-2.1-2.6-5.1-4.3-8.4-4.7c-9.1-1.1-30.3-5.4-27.2-22.3
					c0.1-0.4,0.4-0.6,0.8-0.5c9.9,1.6,18.6,3.1,28.7-0.2c12.7-4,38.3-19.1,62.9-28.9c3,3.7,6.9,7.3,11.1,9.9c0.1,0.5,0.2,1,0.4,1.5
					c0.5,1.8,1.2,3.6,2.2,5.3c0.2,0.3,0.4,0.5,0.4,0.7v0.1l0.1,0.1l0.3,0.4l0.1,0.2l0.1,0.1c10.4,16.7,30.6,20.4,38.8,21.3
					c1.5,0.2,2.9,0.3,4.4,0.4c0.2,0.3,0.4,0.5,0.7,0.8c0.4,0.4,0.9,0.9,1.4,1.3c4.4,3.8,10.3,5.4,16,4.7c5.4-0.6,12.1-2.1,15.3-5.6
					c0.9-1,1.8-2,2.5-3c1.3-1.8-0.4-4.2-2.5-3.7c-3.9,1.1-8.8,2.3-12.1,2.3c-3.3,0-6.4-0.4-9.4-1.6c-0.9-0.3-1.7-0.9-2.3-1.6
					c-0.9-1-1.2-2.2-1.2-3.4c0-0.2,0-0.4,0-0.5s0-0.4,0.1-0.5c0-0.2,0.1-0.4,0.1-0.4c0,0,0,0,0-0.1s0.1-0.2,0.1-0.3s0.1-0.2,0.1-0.3
					s0.1-0.2,0.2-0.3c0-0.1,0.1-0.2,0.1-0.2c0.1-0.1,0.1-0.2,0.2-0.3c0-0.1,0.1-0.2,0.2-0.2c0.1-0.1,0.1-0.2,0.2-0.3
					c0.1-0.1,0.1-0.2,0.2-0.2c0.1-0.1,0.2-0.2,0.3-0.3l0.1-0.1c0.1,0,0.1-0.1,0.2-0.2c0.1-0.1,0.2-0.2,0.4-0.3
					c-0.2,0-0.3,0.1-0.4,0.1c-0.1,0-0.3,0-0.4,0.1c-0.4,0.1-0.7,0.1-1.1,0.2c-0.5,0.1-1.1,0.2-1.6,0.2c-0.4,0.1-0.8,0.1-1.2,0.2
					c-0.9,0.1-1.8,0.2-2.6,0.3c-0.4,0-1,0.1-1.4,0.1c-0.4,0-0.7,0-1.1,0c-0.6,0-1.2,0-1.8,0c-2,0-4-0.1-6-0.3
					c-9.5-1-20.7-4.8-26-13.3l-0.3-0.4c-0.1-0.2-0.2-0.3-0.3-0.4c-0.3-0.4-0.4-0.9-0.5-1.3c-0.7-2.7,0.9-5.6,3.7-6.4
					c0.1,0,0.3-0.1,0.4-0.1c-0.9-0.2-1.7-0.4-2.5-0.7c-5.4-1.7-10-4.2-13.7-7.9c0.3-0.1,0.5-0.2,0.8-0.3c0.2-0.1-0.1-0.4-0.2-0.4
					c-3.2-3.1-5.5-6.9-7.1-11.5l-0.1-0.4L470,347c-0.1-0.3-0.1-0.4-0.1-0.7c0-1.6,0.7-3,1.8-4c-0.4-0.2-0.8-0.4-1.2-0.5
					c-7.8-3.5-13.4-9.6-15.1-18.2l-0.1-0.4v-0.4c0-1.8,0.9-3.5,2.4-4.5c-1.1-0.5-2.1-1.1-3.1-1.8c-7.6-4.8-11.3-11.9-11.3-20.7
					c-0.1-0.6,0-1.3,0.3-1.9c0.4-1.3,1.5-2.4,2.7-2.9c-0.6-0.5-1.1-1-1.7-1.5c-7.4-6.9-10.3-15.7-9.6-25.7v-0.4l0.1-0.4
					c0.2-0.6,0.4-1.1,0.7-1.7c0.6-0.9,1.4-1.6,2.4-1.9c-6-8.3-8.7-18.1-8.7-28.4c-0.1-1.3,0.4-2.6,1.3-3.6c1.4-1.6,3.5-2.1,5.4-1.5
					c-0.7-1.8-1.2-3.8-1.7-5.8c-1.4-6.7-1.2-13.4,0.9-19.9c0.4-1.1,1-1.9,1.8-2.5c2.3-1.7,5.5-1.1,7.2,1.1c4.4,6,9.3,11.5,14.7,16.6
					c4.9,4.7,10.1,9.1,15.6,13.2c2-0.5,4.2,0.2,5.5,1.9c4.1,5.7,9.3,10.5,14.9,14.7c4.8,3.6,10.1,6.6,15.6,9.2
					c0.2-0.4,0.5-0.9,0.9-1.2c2-2.1,5.3-2.1,7.3-0.2c5.4,5.2,11.6,9.6,18.3,13c6.9,3.5,14.2,6.1,21.9,7.6c4.2,0.9,8.8,2.4,12.2,5.1
					c3.4,2.7,5.4,6.6,4.7,11c-1.2,8.3-0.9,16.7,2.5,24.5c1,2.4,5.2,8.3,4.5,7.7c2.5,2.8,8.7,8.2,14.3,15.4c3.8-0.8,7.6-1.8,11.3-2.8
					c2.2-2.4,3.6-4.5,4.4-5.8c0.5-5,2.1-9.6,4.6-13.3c-33.4-20.9-43.9-54.4-42.9-91.8c0.1-2.2,2.2-3.9,4.4-3.3
					c51.3,11.9,61.3,72.9,69.7,77.7c6.2-2.8,10.9-1.8,11.4-1.8c1.1-3,2.4-6.1,3.3-9.2c0.8-2.5,1.2-5,1.2-7.6
					c0.1-9.1-2.5-17.7-5.3-26.3c-1.7-5.4-4.1-10.5-8.1-14.5c-3.1-3.1-6.6-5.6-10.1-8.2c-5.3-3.8-6.6-6.9-4.8-12.3
					c0.3-0.9,0.9-1.6,1.5-2.2c0.4-0.3,1.2-0.4,1.6-0.2c0.3,0.2,0.5,1.1,0.4,1.5c-1,3.4-0.6,4.5,3,7.2c2.1,1.7,4.6,2.6,6.9,4
					c0.8,0.4,1.5,0.9,2.5,1.4c-0.4-1.4-0.9-2.5-1.1-3.8c-1.2-6.8,0.4-12.8,4.6-18.2c0.8-1,1.3-2,1-3.4c-0.2-0.5,0.3-1.5,0.7-1.7
					c0.6-0.2,1.7,0,1.9,0.4c0.4,0.8,0.7,1.8,0.4,2.6c-0.6,2.2-1.7,4.3-2.4,6.5c-1.7,5.6-1.5,11.2-0.1,16.8c0.9,3.5,2,7.1,3.9,10.2
					c2.8,4.5,5.1,9.1,6.5,14.2c0.2,0.5,0.8,1,1.1,1.5c0.4-0.5,0.9-1.1,1.1-1.6c1.6-5.9,4.2-11.2,7.7-16.2c1.9-2.6,4-5.2,5.9-7.8
					c0.6-0.9,0.6-2.2,1-3.3c0.2-0.7,0.4-1.7,0.9-1.8c0.6-0.1,1.6,0.3,2,0.7c1.1,1.2,1,3.3,0,4.8c-1.7,2.6-3.5,5.2-4.8,8
					c-5.9,12.6-8.3,25.7-6.1,39.4c0.5,3.3,1.3,6.5-0.3,9.8c-0.1,0.1-0.1,0.2-0.1,0.2c0.2,0.4,0.3,0.8,0.4,1.1
					c0.4-0.2,0.9-0.3,1.1-0.5c0.4-0.5,0.5-1.1,0.8-1.8c1-2.1,1.7-4.3,2.9-6.2c2.1-3.2,5.3-5.3,8.4-7.3c4.2-2.6,8.8-4.5,13.7-5.4
					c0.9-0.2,1.5,0.1,1.6,0.9c0,0.5-0.4,1.3-0.9,1.6c-2.5,1.8-5.4,3.2-7.9,5.1c-6.9,5.4-11.4,12.6-13.2,21.2
					c-0.6,3.1-0.8,6.2-0.2,9.4c0.5-0.4,0.9-0.7,1.2-1.1c5.8-5.5,12.4-9.4,20.3-11c2.4-0.4,4.7-0.5,7.2-0.5c0.5,0,1.1,0.8,1.8,1.2
					c-0.5,0.4-1,1.1-1.6,1.1c-3,0.4-5.7,1.7-8.3,3c-6.1,3-11.3,6.9-14.7,12.9c-0.1,0.1-0.2,0.2-0.2,0.3c0.7,0.9,1.4,1.8,2.1,2.8
					l23.3,33.4c0.9,1.3,0.8,3.1-0.2,4.3C710.7,355.7,707.7,359.3,704.6,362.2z"/>
			</g>
			<line class="st1" x1="477.4" y1="359.1" x2="476.5" y2="359.5"/>
		</g>
	</g>
	<g>
		<path class="st2" d="M435.2,785.8c-3.1,0-5.7-0.9-7.8-2.7c-2.1-1.8-3.5-4.7-4.3-8.7h-0.2V785H411v-0.8h1.1c1.7,0,2.9-0.2,3.8-0.5
			c0.9-0.3,1.5-0.9,1.8-1.7c0.3-0.8,0.5-2,0.5-3.6V734c0-1.6-0.2-2.9-0.5-3.7c-0.3-0.9-0.9-1.4-1.7-1.7c-0.8-0.3-2-0.5-3.5-0.5h-1.1
			v-0.8H423v14.5c0,1.4,0,3.3,0,5.7c0,2.4-0.1,5-0.1,7.7h0.2c0.8-3.8,2.2-6.7,4.2-8.7c2.1-1.9,4.8-2.9,8.3-2.9c4.9,0,8.6,1.7,11,5.2
			c2.4,3.4,3.6,8.7,3.6,15.9c0,4.6-0.6,8.5-1.8,11.6c-1.2,3.1-2.9,5.5-5.1,7.1C441,785,438.3,785.8,435.2,785.8z M434.6,784.6
			c2.4,0,4.3-0.7,5.9-2.1c1.6-1.4,2.7-3.6,3.5-6.6c0.8-3,1.1-6.8,1.1-11.4c0-4.7-0.3-8.5-1-11.4c-0.7-2.9-1.8-5-3.4-6.3
			c-1.6-1.3-3.6-2-6.2-2c-4,0-7,1.7-8.8,5.1c-1.8,3.4-2.8,8.3-2.8,14.7c0,6.6,0.9,11.6,2.7,15C427.5,782.9,430.4,784.6,434.6,784.6z
			"/>
		<path class="st2" d="M456.4,802.4c3.2,0,5.8-0.2,7.7-0.7c2-0.5,3.6-1.3,4.8-2.4c1.2-1.1,2.3-2.7,3.2-4.7c0.9-2,2-4.5,3.1-7.5
			l-15.8-38c-0.5-1.2-0.9-2-1.3-2.6c-0.4-0.6-0.9-0.9-1.4-1.1c-0.5-0.2-1.3-0.3-2.2-0.3h-0.9v-0.8h15.9v0.8h-1.1
			c-1.5,0-2.5,0.2-3.1,0.5c-0.6,0.4-0.9,1-0.9,1.8c0,0.5,0.1,1.1,0.4,1.8c0.3,0.7,0.7,1.8,1.2,3.1l6,14.9c0.4,1.1,0.9,2.2,1.4,3.5
			c0.5,1.2,1,2.5,1.5,3.8c0.5,1.3,0.9,2.5,1.4,3.6c0.4,1.1,0.8,2.1,1.1,3c0.6-1.7,1.2-3.5,1.8-5.2c0.6-1.8,1.2-3.5,1.8-5.2l6.1-18.5
			c0.3-1,0.6-1.8,0.8-2.5c0.2-0.7,0.3-1.3,0.3-1.8c0-0.9-0.3-1.6-0.9-2c-0.6-0.4-1.7-0.6-3.4-0.6h-3.2v-0.8H495v0.8h-0.5
			c-1.3,0-2.3,0.1-3,0.3c-0.7,0.2-1.3,0.7-1.7,1.4c-0.4,0.7-0.9,1.8-1.4,3.2l-11.5,34.7c-1.3,3.8-2.4,6.9-3.5,9.3
			c-1.1,2.4-2.3,4.3-3.6,5.7c-1.3,1.3-3,2.3-5.1,2.8c-2,0.5-4.7,0.8-7.8,0.8h-0.5V802.4z"/>
		<path class="st2" d="M514.1,785v-0.8h1c1.5,0,2.7-0.2,3.6-0.6c0.9-0.4,1.6-1,2-1.9c0.4-0.9,0.6-2,0.6-3.3V751
			c0-1.4-0.2-2.6-0.6-3.4c-0.4-0.9-1.1-1.5-2-1.9c-0.9-0.4-2.1-0.6-3.6-0.6h-0.2v-0.8h13.5v7.6h0.2c0.4-1.3,0.9-2.6,1.6-3.9
			c0.7-1.3,1.8-2.3,3.2-3.2c1.4-0.9,3.4-1.3,5.8-1.3c2.5,0,4.5,0.5,5.8,1.5c1.3,1,2,2.4,2,4.1c0,1.5-0.5,2.8-1.6,3.8
			c-1.1,1-2.9,1.5-5.4,1.5c0-3.1-0.5-5.3-1.6-6.5c-1.1-1.2-2.3-1.8-3.6-1.8c-1.5,0-2.6,0.5-3.5,1.6c-0.9,1-1.5,2.4-1.9,4
			c-0.4,1.6-0.7,3.3-0.8,5.1c-0.1,1.7-0.2,3.3-0.2,4.8V778c0,1.5,0.2,2.7,0.6,3.6c0.4,0.9,1.1,1.6,2,2c0.9,0.4,2.1,0.6,3.6,0.6h1
			v0.8H514.1z"/>
		<path class="st2" d="M570.3,785.8c-5.7,0-10.1-1.8-13.2-5.5c-3.2-3.6-4.7-8.7-4.7-15.3c0-7.1,1.5-12.4,4.4-16
			c2.9-3.6,7.1-5.4,12.4-5.4c4.9,0,8.8,1.5,11.6,4.6c2.8,3,4.2,7.6,4.2,13.6v1.8h-25.3c0,5.2,0.4,9.3,1.1,12.4
			c0.7,3.1,1.9,5.4,3.5,6.9c1.6,1.4,3.7,2.2,6.3,2.2c1.9,0,3.6-0.4,5.1-1.1c1.5-0.7,2.7-1.8,3.8-3.1c1-1.4,1.7-3.1,2-5.1
			c0.6,0.1,1.1,0.4,1.4,0.9c0.3,0.5,0.5,1,0.5,1.6c0,1-0.5,2.1-1.4,3.3c-1,1.2-2.4,2.2-4.3,3C575.6,785.3,573.2,785.8,570.3,785.8z
			 M577.2,762.8c0-4.4-0.3-8-0.8-10.7c-0.6-2.7-1.4-4.6-2.7-5.9c-1.2-1.2-2.8-1.9-4.8-1.9c-2.1,0-3.8,0.6-5.1,1.9
			c-1.3,1.2-2.3,3.2-3,5.9c-0.7,2.7-1.1,6.2-1.3,10.7H577.2z"/>
		<path class="st2" d="M605,785.8c-3.8,0-6.9-1-9.1-3c-2.3-2-3.4-4.7-3.4-8.2c0-3.9,1.4-6.8,4.3-8.7c2.9-1.9,7.2-3,13-3.2l6.3-0.2
			v-5.7c0-2.8-0.2-5.2-0.5-7c-0.3-1.8-1-3.2-2-4.1c-1-0.9-2.6-1.3-4.6-1.3c-2.9,0-4.8,0.9-5.7,2.7c-0.8,1.8-1.3,4.7-1.3,8.6
			c-2.1,0-3.7-0.4-4.8-1.1c-1.1-0.7-1.6-1.9-1.6-3.5c0-1.8,0.6-3.3,1.9-4.4c1.2-1.1,2.9-1.9,5-2.4c2.1-0.5,4.3-0.8,6.8-0.8
			c4.7,0,8.1,1,10.4,3c2.3,2,3.5,5.4,3.5,10.2v22.7c0,1.2,0.2,2.2,0.5,2.9c0.3,0.7,0.8,1.2,1.5,1.5c0.7,0.3,1.6,0.5,2.7,0.5h0.2v0.8
			h-11.5v-8h-0.2c-0.5,2-1.3,3.7-2.4,5c-1.1,1.3-2.4,2.2-4,2.8C608.6,785.4,606.9,785.8,605,785.8z M606.5,784.7
			c1.9,0,3.5-0.5,5-1.4c1.4-1,2.6-2.2,3.4-3.9c0.8-1.6,1.2-3.4,1.2-5.2v-10.9l-4.9,0.2c-4.3,0.2-7.3,1.2-8.9,3
			c-1.6,1.8-2.5,4.8-2.5,8.9c0,2,0.2,3.7,0.7,5.1c0.5,1.4,1.2,2.4,2.2,3.1C603.8,784.3,605.1,784.7,606.5,784.7z"/>
		<path class="st2" d="M650.8,785.8c-3.3,0-6.1-0.8-8.3-2.4c-2.3-1.6-4-4-5.2-7.1c-1.2-3.2-1.7-7-1.7-11.6c0-4.7,0.6-8.5,1.7-11.6
			s2.8-5.4,5.1-7c2.2-1.6,5-2.4,8.3-2.4c3.4,0,6.1,0.9,8.1,2.8c1.9,1.8,3.2,4.7,3.9,8.5h0.2c-0.1-1.8-0.1-3.6-0.1-5.3
			c0-1.7,0-3.3,0-4.8c0-1.4,0-2.6,0-3.5V734c0-1.4-0.2-2.6-0.6-3.4c-0.4-0.9-1.1-1.5-2-1.9c-0.9-0.4-2.1-0.6-3.6-0.6h-0.2v-0.8h13.6
			v51c0,1.4,0.2,2.5,0.6,3.3c0.4,0.9,1.1,1.5,2,1.9c0.9,0.4,2.1,0.6,3.6,0.6h0.6v0.8h-13.9v-10.7h-0.2c-0.7,3.9-2,6.8-3.9,8.6
			C656.7,784.8,654.1,785.8,650.8,785.8z M652.1,784.6c3.6,0,6.2-1.6,8-4.9c1.7-3.3,2.6-8.3,2.6-15.1c0-4.4-0.4-8.1-1.1-11
			c-0.7-2.9-1.9-5.1-3.4-6.6c-1.5-1.5-3.5-2.2-6-2.2c-2.2,0-4,0.7-5.4,2c-1.4,1.3-2.4,3.4-3,6.3c-0.6,2.9-0.9,6.7-0.9,11.5
			c0,4.8,0.3,8.7,0.9,11.6c0.6,3,1.6,5.1,3,6.4C648.2,783.9,649.9,784.6,652.1,784.6z"/>
		<path class="st2" d="M679.9,765v-1.5h19.7v1.5H679.9z"/>
		<path class="st2" d="M723.1,785.8c-3.4,0-6.5-0.7-9.1-2.1c-2.6-1.4-4.7-3.7-6.1-6.8c-1.5-3.1-2.2-7.3-2.2-12.4
			c0-5.2,0.7-9.3,2.2-12.4c1.5-3.1,3.5-5.2,6-6.6c2.5-1.3,5.4-2,8.6-2c2.1,0,4.2,0.3,6.3,0.8c2,0.6,3.7,1.4,5,2.5
			c1.3,1.1,2,2.6,2,4.5c0,1.1-0.3,2-0.8,2.7c-0.5,0.7-1.3,1.2-2.3,1.5c-1,0.3-2.2,0.5-3.7,0.5c0-2.7-0.2-4.9-0.6-6.6
			c-0.4-1.7-1-3-2-3.9c-1-0.8-2.3-1.3-4.1-1.3c-1.8,0-3.4,0.6-4.9,1.7c-1.4,1.1-2.5,3.2-3.3,6.1c-0.8,2.9-1.2,7.1-1.2,12.5
			c0,5,0.4,8.9,1.1,11.9c0.8,3,2,5.2,3.6,6.5c1.7,1.3,3.8,2,6.4,2c1.7,0,3.2-0.3,4.5-0.8c1.3-0.6,2.5-1.5,3.5-2.9
			c1-1.4,1.8-3.3,2.3-5.7c0.5,0.1,0.9,0.4,1.2,0.8c0.3,0.4,0.4,1,0.4,1.7c0,1.2-0.5,2.4-1.4,3.6c-1,1.2-2.4,2.2-4.3,3
			C728.4,785.3,726,785.8,723.1,785.8z"/>
		<path class="st2" d="M760.5,785.8c-5.5,0-9.8-1.7-12.9-5.2c-3.1-3.5-4.7-8.8-4.7-15.9c0-7.1,1.5-12.3,4.5-15.8
			c3-3.5,7.4-5.2,13.3-5.2c5.5,0,9.8,1.7,12.9,5.2c3.1,3.5,4.7,8.7,4.7,15.8c0,7.1-1.5,12.4-4.5,15.9
			C770.8,784,766.4,785.8,760.5,785.8z M760.7,785c2.5,0,4.5-0.7,6-2c1.5-1.4,2.6-3.5,3.3-6.5c0.7-3,1-6.9,1-11.8
			c0-4.9-0.3-8.8-1-11.8c-0.7-3-1.8-5.1-3.3-6.5c-1.5-1.3-3.5-2-6.1-2c-2.5,0-4.5,0.7-6,2c-1.5,1.3-2.6,3.5-3.3,6.5
			c-0.7,3-1,6.9-1,11.8c0,4.9,0.3,8.8,1,11.8c0.7,3,1.8,5.2,3.3,6.5C756.2,784.3,758.2,785,760.7,785z"/>
		<path class="st2" d="M804.3,785.8c-5.5,0-9.8-1.7-12.9-5.2c-3.1-3.5-4.7-8.8-4.7-15.9c0-7.1,1.5-12.3,4.5-15.8
			c3-3.5,7.4-5.2,13.3-5.2c5.5,0,9.8,1.7,12.9,5.2c3.1,3.5,4.7,8.7,4.7,15.8c0,7.1-1.5,12.4-4.5,15.9
			C814.6,784,810.2,785.8,804.3,785.8z M804.5,785c2.5,0,4.5-0.7,6-2c1.5-1.4,2.6-3.5,3.3-6.5c0.7-3,1-6.9,1-11.8
			c0-4.9-0.3-8.8-1-11.8c-0.7-3-1.8-5.1-3.3-6.5c-1.5-1.3-3.5-2-6.1-2c-2.5,0-4.5,0.7-6,2c-1.5,1.3-2.6,3.5-3.3,6.5
			c-0.7,3-1,6.9-1,11.8c0,4.9,0.3,8.8,1,11.8c0.7,3,1.8,5.2,3.3,6.5C800,784.3,802,785,804.5,785z"/>
		<path class="st2" d="M827.7,803.2v-0.8h0.6c1.5,0,2.7-0.2,3.6-0.6c0.9-0.4,1.6-1,2-1.9c0.4-0.9,0.6-2,0.6-3.3V751
			c0-1.4-0.2-2.6-0.6-3.4c-0.4-0.9-1.1-1.5-2-1.9c-0.9-0.4-2.1-0.6-3.6-0.6h-1v-0.8h14.2v10.5h0.2c0.7-3.8,2-6.7,4-8.5
			c1.9-1.8,4.6-2.8,8-2.8c5,0,8.7,1.8,11.3,5.3c2.6,3.5,3.8,8.8,3.8,15.7c0,6.9-1.3,12.2-3.9,15.8c-2.6,3.6-6.4,5.4-11.3,5.4
			c-3.3,0-5.9-0.9-7.8-2.8c-1.9-1.9-3.2-4.8-3.9-8.6h-0.2c0.1,1.3,0.1,2.5,0.1,3.8c0,1.3,0,2.5,0,3.8v14.3c0,1.5,0.2,2.7,0.6,3.6
			c0.4,0.9,1.1,1.6,2,2c0.9,0.4,2.1,0.6,3.6,0.6h0.2v0.8H827.7z M852.2,784.6c2.2,0,4-0.7,5.3-2c1.3-1.3,2.3-3.5,2.9-6.4
			c0.6-3,0.9-6.8,0.9-11.6c0-4.8-0.3-8.6-0.9-11.5c-0.6-2.9-1.6-5-3-6.3c-1.4-1.3-3.2-2-5.4-2c-2.4,0-4.4,0.7-6,2.2
			c-1.5,1.5-2.7,3.7-3.4,6.6c-0.7,2.9-1.1,6.6-1.1,11c0,4.5,0.4,8.2,1.1,11.2c0.8,3,1.9,5.2,3.5,6.6
			C847.8,783.9,849.8,784.6,852.2,784.6z"/>
	</g>
</g>
</svg>
