<?xml version="1.0" encoding="UTF-8" standalone="no"?>
<!-- Created with Inkscape (http://www.inkscape.org/) -->

<svg
   version="1.1"
   id="svg2"
   width="641"
   height="698"
   viewBox="0 0 641 698"
   sodipodi:docname="nodegoat.vg.svg"
   inkscape:version="1.1.2 (0a00cf5339, 2022-02-04)"
   xmlns:inkscape="http://www.inkscape.org/namespaces/inkscape"
   xmlns:sodipodi="http://sodipodi.sourceforge.net/DTD/sodipodi-0.dtd"
   xmlns="http://www.w3.org/2000/svg"
   xmlns:svg="http://www.w3.org/2000/svg">
  <defs
     id="defs6" />
  <sodipodi:namedview
     id="namedview4"
     pagecolor="#505050"
     bordercolor="#eeeeee"
     borderopacity="1"
     inkscape:pageshadow="0"
     inkscape:pageopacity="0"
     inkscape:pagecheckerboard="0"
     showgrid="false"
     inkscape:zoom="1.0730659"
     inkscape:cx="320.57677"
     inkscape:cy="349"
     inkscape:window-width="1850"
     inkscape:window-height="1009"
     inkscape:window-x="0"
     inkscape:window-y="0"
     inkscape:window-maximized="1"
     inkscape:current-layer="g8" />
  <g
     inkscape:groupmode="layer"
     inkscape:label="Image"
     id="g8">
    <path
       style="fill:#000000"
       d="m 8.2034227,592.21519 0.363416,-93.80569 136.5000013,-39.0503 136.5,-39.05031 5.12273,-6.58375 c 2.8175,-3.62106 5.9675,-7.72105 7,-9.11108 1.5708,-2.11473 7.31398,-4.22814 35.17923,-12.94551 18.31608,-5.73 33.50275,-10.61897 33.74816,-10.86438 0.41113,-0.41114 -3.97664,-18.6732 -10.03912,-41.78322 -1.37068,-5.225 -2.49639,-10.79057 -2.50157,-12.36792 -0.005,-1.57736 1.89094,-6.97736 4.2136,-12 4.06277,-8.78551 4.22406,-9.51159 4.25,-19.13208 0.0225,-8.32604 -0.37732,-10.98274 -2.38818,-15.87074 -1.94496,-4.72781 -2.18831,-6.23395 -1.25,-7.73643 0.64083,-1.02613 1.16515,-2.6229 1.16515,-3.54839 0,-2.30952 -5.28464,-16.34444 -6.15426,-16.34444 -0.386,0 -0.97813,2.5875 -1.31582,5.75 -0.93438,8.75029 -1.47256,11.61288 -2.48358,13.21024 -1.36492,2.15647 -4.523,-1.03538 -6.7604,-6.8327 -3.42075,-8.86349 -1.99083,-35.93949 2.25694,-42.73604 0.72479,-1.15967 1.82755,-4.98467 2.45059,-8.5 0.62304,-3.51532 1.99986,-8.21173 3.05961,-10.43646 1.98762,-4.17259 14.16973,-16.98815 19.45593,-20.4676 4.1525,-2.73322 16.59113,-7.11856 32.5174,-11.46425 63.23378,-17.25417 78.67318,-23.09125 93.72611,-35.43447 7.82375,-6.41537 15.33584,-11.28446 27.13611,-17.58872 11.77546,-6.29101 11.66629,-6.00706 11.31527,-29.428632 -0.29548,-19.71661 1.04056,-32.25116 3.79086,-35.56506 1.41879,-1.70954 -0.79093,-2.50631 -6.95082,-2.50631 -6.40117,0 -12.32523,2.21707 -18.617,6.96741 -7.26195,5.48282 -9.89361,10.07874 -9.89361,17.27816 0,6.44005 -0.80026,7.29607 -2.4355,2.6052 -3.74529,-10.74373 2.14292,-26.32305 12.33965,-32.64887 2.39539,-1.48605 5.18939,-3.23063 6.20889,-3.87686 3.72232,-2.35946 -8.65364,1.48918 -13.02321,4.04991 -6.19864,3.63265 -9.94026,8.33492 -13.15791,16.53617 -3.37678,8.60684 -4.86549,8.06004 -4.29797,-1.57863 0.90113,-15.3047 10.49171,-25.07862 30.19459,-30.77183 9.65605,-2.79015 18.85098,-3.29127 26.24198,-1.4302 4.01949,1.01212 4.72016,0.91968 6.69282,-0.88302 3.1842,-2.90985 7.45694,-4.84623 13.53012,-6.13174 6.32325,-1.33845 8.69867,-2.47138 12.55485,-5.98789 l 2.88164,-2.62781 -0.65154,3 c -1.92744,8.87494 -1.87258,9.92902 0.63887,12.27688 3.18365,2.97628 8.97314,3.84843 31.53327,4.7503 17.22641,0.68865 18.34938,0.85359 19.41632,2.85187 0.62284,1.16652 2.36601,3.27515 3.87371,4.68584 2.57983,2.41383 2.72318,3.00076 2.43404,9.96573 -0.33583,8.08982 0.47056,6.84981 -9.92077,15.25543 -3.74348,3.02812 -8.58718,11.72048 -8.58718,15.41029 0,3.14329 -1.5058,2.89112 -4.15812,-0.69634 -1.2199,-1.65 -2.92087,-2.99032 -3.77994,-2.97849 -0.85907,0.0118 -5.61194,2.15832 -10.56194,4.76997 -10.65738,5.62288 -12.49602,8.25032 -12.49845,17.86037 -10e-4,5.095932 0.79507,8.013872 4.63958,17.000002 6.17168,14.42567 10.2646,26.69473 11.00401,32.98595 0.5021,4.27205 0.15927,6.08265 -2.02655,10.70311 -4.21855,8.91727 -4.60351,10.27224 -3.29556,11.59944 0.90474,0.91806 0.73941,1.51732 -0.71484,2.59091 -1.0405,0.76814 -2.3905,1.56466 -3,1.77006 -0.80483,0.27121 -0.79807,0.76013 0.0247,1.78606 0.62309,0.77694 0.90951,2.87512 0.6365,4.66262 -0.3978,2.60445 -0.96344,3.25 -2.84772,3.25 -2.75244,0 -4.42167,2.61775 -4.42167,6.93426 0,1.68616 -0.34074,3.06574 -0.75721,3.06574 -0.41646,0 -0.60474,1.91692 -0.4184,4.25983 0.27955,3.51496 -0.18305,4.91647 -2.6456,8.0152 -2.49418,3.13851 -2.89894,4.3925 -2.46415,7.63411 0.35828,2.67122 -0.31055,6.37339 -2.14839,11.89192 -2.2441,6.73842 -2.68746,9.89718 -2.78701,19.85606 -0.11049,11.05418 0.13115,12.64205 3.62843,23.84288 6.46239,20.6973 9.01164,25.83703 16.46928,33.205 l 6.62305,6.54341 15.0402,-3.62421 c 13.60721,-3.27889 20.4598,-4.35312 20.4598,-3.20731 0,0.22929 -1.84228,5.51679 -4.09396,11.75 -4.60735,12.7543 -20.90604,59.8244 -20.90604,60.37598 0,0.1968 2.72477,0.66609 6.05503,1.04287 4.3634,0.49366 5.91582,1.04784 5.55672,1.98364 -3.53153,9.20301 -13.6777,42.93524 -17.12392,56.93062 -9.06381,36.80889 -12.4857,60.80592 -13.21101,92.64641 -0.70126,30.78463 1.56562,52.16553 7.35311,69.35363 1.40269,4.1658 1.75789,10.5797 2.12897,38.4437 0.24496,18.394 0.13402,37.1815 -0.24653,41.75 l -0.69191,8.3063 h -19.91023 -19.91023 v -28.5 -28.5 h 11 11 v -5.5 -5.5 h -29 -29 v 5.5 5.5 h 11 11 v 28.5362 28.5362 l -9.57986,-0.2862 -9.57985,-0.2862 -6.27419,-16.5 c -5.63796,-14.8269 -12.16657,-30.8208 -18.69144,-45.7908 l -2.30605,-5.2908 -6.52094,0.2908 -6.52095,0.2908 -5.24952,11.7961 c -5.83389,13.1092 -14.48398,34.8329 -18.89448,47.4513 l -2.88272,8.2474 h -10.38486 -10.38486 l 2.63899,-2.0759 c 9.05481,-7.1225 14.09215,-23.3312 11.68538,-37.6002 -3.02894,-17.9584 -16.83253,-30.3247 -33.84817,-30.3247 -21.00097,0 -35.20648,15.1515 -35.20648,37.5512 0,11.9438 2.67977,19.843 9.12344,26.8934 l 5.07725,5.5554 h -13.60035 -13.60034 v -16.5 -16.5 h -6.5 -6.5 v 12.9809 12.981 l -2.5257,0.6339 c -1.38914,0.3486 -5.39151,0.4514 -8.89417,0.2284 -12.9324,-0.8235 -19.95349,-9.8487 -20.03579,-25.7547 -0.0385,-7.4484 0.32833,-9.3285 2.80416,-14.3705 3.93658,-8.0169 8.38053,-10.8566 17.93045,-11.4575 5.53483,-0.3483 8.61919,0.02 13.20843,1.577 6.5502,2.2223 6.51322,2.2397 8.58697,-4.0438 1.19907,-3.6332 1.15051,-4.1372 -0.51601,-5.3557 -1.01179,-0.7399 -5.21693,-2.0966 -9.34476,-3.0149 -23.98562,-5.3363 -43.31951,7.2198 -46.05079,29.907 -1.6992,14.1142 2.31653,28.2754 9.98195,35.2007 l 3.86102,3.4882 h -10.50288 -10.50288 v -3.5 -3.5 h -18 -18 v -10.5 -10.5 h 15 15 v -5.5 -5.5 h -15 -15 v -9 -9 h 16.5 16.5 v -5.5 -5.5 h -23 -23 v 34 34 h -15.5 c -8.525,0 -15.5,-0.1883 -15.5,-0.4185 0,-0.2301 1.5236,-1.3601 3.38577,-2.5109 4.27114,-2.6398 10.13251,-11.2076 11.64208,-17.0179 1.88535,-7.2565 1.39305,-20.8528 -0.98521,-27.2092 -3.99942,-10.6894 -13.56933,-18.1475 -26.82316,-20.9039 -5.85391,-1.2175 -27.09668,-0.8302 -30.46948,0.5554 -1.61738,0.6644 -1.75,3.2496 -1.75,34.1119 v 33.3931 h -14.31616 -14.31616 l 4.6967,-4.8728 c 7.09787,-7.3639 9.34741,-14.0039 9.35978,-27.6272 0.009,-9.9755 -0.25515,-11.5807 -2.83661,-17.2344 -3.30458,-7.2373 -10.30172,-14.3212 -17.37032,-17.5856 -6.69883,-3.0937 -21.61609,-3.0612 -28.43693,0.062 -6.22625,2.8508 -13.39856,9.5712 -16.27685,15.2512 -7.570975,14.9407 -5.122742,36.1836 5.43217,47.1341 l 4.6967,4.8728 H 98.383001 84.066839 v -34 -34 h -6.481901 -6.481902 l -0.268098,23.5115 -0.268099,23.5114 -9.754447,-13.7614 c -5.364947,-7.5689 -13.255333,-18.0365 -17.534193,-23.2615 l -7.779746,-9.5 -5.715807,-0.2999 -5.715807,-0.3 v 34.05 34.0499 H 15.953423 7.8400067 Z M 404.41153,368.45156 c 15.48542,-4.71317 32.20531,-9.8454 37.15531,-11.40496 4.95,-1.55957 10.97747,-3.36318 13.39438,-4.00803 l 4.39438,-1.17246 -6.39438,-6.51064 c -3.51691,-3.58085 -8.64438,-7.98566 -11.39438,-9.78848 -2.75,-1.80281 -8.54504,-6.09288 -12.87787,-9.53348 l -7.87787,-6.25563 0.63991,-6.12846 c 2.1147,-20.2528 2.11369,-20.2867 -0.62398,-20.97381 -1.53131,-0.38433 -3.0025,-1.82543 -3.78014,-3.70282 -0.70022,-1.69048 -2.68248,-4.14856 -4.40503,-5.46241 -3.27765,-2.49999 -11.28424,-6.42975 -13.17698,-6.46747 -1.47048,-0.0293 -7.02318,12.20665 -8.38536,18.47804 -1.69746,7.81493 -2.00545,8.45923 -4.32933,9.05655 -2.3928,0.61505 -8.66593,13.29146 -8.70444,17.5895 -0.0116,1.29467 -1.18332,5.50395 -2.60381,9.35395 -5.19402,14.07751 -5.4126,15.57426 -3.83595,26.26728 1.60581,10.89083 3.4081,19.23272 4.15528,19.23272 0.27223,0 13.16484,-3.85623 28.65026,-8.56939 z m 107.00442,-32.40959 c 18.61702,-5.51156 33.98621,-10.02102 34.15377,-10.02102 0.16756,0 0.63128,-4.79196 1.03048,-10.6488 0.58071,-8.51978 0.37664,-12.17765 -1.0207,-18.29578 -1.13017,-4.94834 -1.53009,-9.39535 -1.13321,-12.60121 1.53081,-12.36549 1.82265,-23.55208 0.68601,-26.29617 -0.64541,-1.55817 -3.64091,-5.26866 -6.65666,-8.24554 l -5.48319,-5.4125 -7.7128,0.0478 c -7.25832,0.045 -8.03518,0.27071 -13.18347,3.83087 -4.28823,2.9654 -6.09184,3.65884 -8.34463,3.20828 -2.20552,-0.4411 -3.29697,-0.0529 -4.69267,1.66913 l -1.81871,2.24393 -3.04617,-2.25 c -3.59098,-2.65241 -5.59728,-2.91751 -4.7169,-0.62325 1.17957,3.07389 -1.30959,4.37325 -8.37772,4.37325 -5.45257,0 -7.0645,0.37783 -8.53254,2 -0.99549,1.1 -3.06906,2 -4.60793,2 -1.53888,0 -3.94231,0.5214 -5.34095,1.15866 -2.09657,0.95526 -2.87312,0.85991 -4.4235,-0.54317 -2.36398,-2.13936 -2.70302,-1.38615 -3.58315,7.96025 -1.00239,10.6446 -2.45638,15.94983 -5.4843,20.01079 -2.41914,3.24447 -2.63396,4.08238 -1.68869,6.58668 0.79627,2.10957 0.7737,3.36467 -0.0852,4.74006 -2.14623,3.43665 3.144,17.26422 10.55428,27.58673 5.85571,8.15699 16.31359,18.58473 18.08486,18.03275 0.86604,-0.26989 16.80672,-5.00017 35.42373,-10.51173 z m 60.96272,-17.6433 c 5.05349,-1.44225 9.36442,-2.781 9.57983,-2.975 0.21542,-0.19399 -0.56879,-1.15146 -1.74268,-2.12772 -1.51254,-1.25788 -2.56469,-4.06029 -3.61152,-9.61928 -1.55149,-8.2389 -4.64241,-15.97302 -8.86997,-22.19442 l -2.52275,-3.71256 -1.18889,4.37563 c -3.3043,12.16114 -5.36767,36.13047 -3.28918,38.20896 1.0008,1.00081 1.69421,0.88436 11.64516,-1.95561 z M 37.066839,662.32099 c 0,-13.035 0.380922,-23.2725 0.846494,-22.75 4.380685,4.9163 21.732881,29.7174 29.52543,42.2 l 2.653165,4.25 H 53.579384 37.066839 Z m 439.302381,17.1756 2.12121,-6.5243 15.45299,0.2743 15.45299,0.2744 1.75771,5 c 0.96674,2.75 1.79259,5.5625 1.83522,6.25 0.0595,0.9597 -4.42971,1.25 -19.33192,1.25 h -19.40941 z m -351.29524,-1.0686 c -8.41038,-3.6472 -12.18199,-10.289 -12.8033,-22.5466 -0.89351,-17.6278 6.70888,-27.8604 20.69894,-27.8604 8.58822,0 14.08237,3.4266 18.4388,11.5 1.82022,3.3732 2.15842,5.6452 2.15842,14.5 0,8.9622 -0.32818,11.1139 -2.24077,14.692 -5.01666,9.3853 -16.88469,13.7772 -26.25209,9.715 z m 286.48428,-0.272 c -5.18835,-2.357 -10.08852,-7.9933 -11.62546,-13.3719 -2.01913,-7.066 -1.54593,-18.4948 1.0031,-24.2266 2.81105,-6.321 4.66993,-8.3777 9.63094,-10.6558 11.19667,-5.1415 24.61575,0.4032 28.66406,11.8439 1.85864,5.2525 1.60478,20.7965 -0.41296,25.2858 -4.81599,10.7154 -17.11346,15.7339 -27.25968,11.1246 z m -216.49142,-24.135 v -25 h 8.35078 c 12.96628,0 19.62684,3.1908 23.54184,11.2781 5.17135,10.6826 3.32453,24.7679 -4.23923,32.3316 -4.97046,4.9705 -9.35539,6.3771 -19.90339,6.3847 l -7.75,0.01 z m 288.41444,4.25 c 3.64263,-10.3038 9.81792,-25.25 10.43244,-25.25 0.66781,0 11.24081,26.7117 11.18186,28.25 -0.0158,0.4125 -5.18378,0.75 -11.48438,0.75 h -11.45564 z"
       id="path827" />
  </g>
</svg>
